<?xml version="1.0" encoding="UTF-8"?>
<svg version="1.1" xmlns="http://www.w3.org/2000/svg" width="2100" height="900">
<path d="M0 0 C693 0 1386 0 2100 0 C2100 297 2100 594 2100 900 C1407 900 714 900 0 900 C0 603 0 306 0 0 Z " fill="#333333" transform="translate(0,0)"/>
<path d="M0 0 C139.26 0 278.52 0 422 0 C422 245.19 422 490.38 422 743 C36.69791667 743 36.69791667 743 16.8125 724.3125 C6.12507986 713.20563637 1.0114213 700.15271306 0.40234375 684.953125 C0.36291153 684.02503021 0.32347931 683.09693542 0.28285217 682.14071655 C-0.27777278 666.83272391 -0.1095422 651.50128334 -0.06866455 636.18579102 C-0.05826885 631.86735534 -0.05383282 627.54891345 -0.04882812 623.23046875 C-0.03823687 614.82029592 -0.02126528 606.4101526 0 598 C1.98 598 3.96 598 6 598 C6 597.34 6 596.68 6 596 C4.02 596 2.04 596 0 596 C-0.30337871 588.27212452 -0.53324981 580.54568224 -0.67355824 572.81332111 C-0.74096519 569.2209598 -0.83207417 565.63271535 -0.98071289 562.04272461 C-2.04703185 535.62465268 -2.04703185 535.62465268 4.65974426 528.31156921 C7.29862137 525.93958567 10.04587461 523.96570291 13 522 C13.33 521.34 13.66 520.68 14 520 C8.67554314 524.57156336 8.67554314 524.57156336 3.625 529.4375 C2 531 2 531 0 531 C-0.14489234 526.89620302 -0.23393542 522.79306033 -0.3125 518.6875 C-0.3753418 516.93663086 -0.3753418 516.93663086 -0.43945312 515.15039062 C-0.45556641 514.03212891 -0.47167969 512.91386719 -0.48828125 511.76171875 C-0.51446533 510.73006592 -0.54064941 509.69841309 -0.56762695 508.63549805 C0 506 0 506 2.40551758 504.32739258 C3.68978638 503.67033325 3.68978638 503.67033325 5 503 C7.48038907 499.2794164 7.46337203 497.40203429 7 493 C4.89430205 490.31341986 2.84898175 488.89932116 0 487 C-0.29762379 484.30725068 -0.39651724 481.84379428 -0.36914349 479.14824486 C-0.37260502 478.32369918 -0.37606655 477.49915351 -0.37963298 476.64962161 C-0.38764233 473.85659915 -0.37405858 471.0640843 -0.36076355 468.27108765 C-0.36207044 466.26058252 -0.36469472 464.25007788 -0.36853105 462.23957598 C-0.37527078 456.69146351 -0.36319561 451.14352326 -0.34819686 445.59543276 C-0.33529081 439.62131519 -0.3396221 433.64720803 -0.34190369 427.67308044 C-0.34347987 417.31474127 -0.33413893 406.95644862 -0.31719017 396.59812546 C-0.29945482 385.73128365 -0.28789552 374.86446436 -0.28463173 363.99760818 C-0.28442551 363.32259478 -0.28421929 362.64758138 -0.28400682 361.95211303 C-0.28299186 358.52422909 -0.2820877 355.09634514 -0.2812262 351.66846116 C-0.27492061 327.37238323 -0.25469644 303.07633476 -0.22631836 278.78027344 C-0.19877678 255.17317864 -0.17757092 231.56609196 -0.16479492 207.95898438 C-0.163983 206.47515813 -0.16317088 204.9913319 -0.16235858 203.50750566 C-0.15610211 192.01975488 -0.15024975 180.53200391 -0.14449489 169.04425287 C-0.11617287 112.69614091 -0.05582296 56.34810439 0 0 Z " fill="#242424" transform="translate(1678,0)"/>
<path d="M0 0 C167.13617414 -0.12113593 167.13617414 -0.12113593 231.1267947 -0.14449489 C247.85993896 -0.15061855 264.59308315 -0.15688234 281.3262272 -0.16357798 C283.35024341 -0.1643875 285.37425963 -0.16519262 287.39827584 -0.16599327 C319.66798898 -0.17879492 351.93768635 -0.20130709 384.20738996 -0.22889166 C417.37156361 -0.25718936 450.53572855 -0.27565632 483.69991407 -0.28174497 C488.38359332 -0.28260944 493.06727255 -0.28358635 497.75095177 -0.28463173 C499.13368134 -0.28493513 499.13368134 -0.28493513 500.54434485 -0.28524467 C515.38604117 -0.28879049 530.22771054 -0.30270651 545.06939587 -0.3204961 C559.98851466 -0.33815736 574.90760672 -0.34490405 589.82673559 -0.34050413 C598.69160491 -0.33822157 607.55637643 -0.34431305 616.4212281 -0.36239263 C622.34433531 -0.37364776 628.26737853 -0.37398712 634.19049017 -0.36549544 C637.56457584 -0.36096935 640.93832661 -0.36280946 644.31241677 -0.37464955 C647.95166924 -0.3866788 651.59044262 -0.38020509 655.22968769 -0.36914349 C656.27088895 -0.37702453 657.31209021 -0.38490557 658.38484302 -0.39302543 C675.37505487 -0.27623826 689.18156856 7.05972906 701 19 C701.70898438 19.67546875 702.41796875 20.3509375 703.1484375 21.046875 C731.75607641 50.20255296 719.09901871 113.97113852 718 304 C481.06 304 244.12 304 0 304 C0 203.68 0 103.36 0 0 Z " fill="#3F3F3D" transform="translate(0,596)"/>
<path d="M0 0 C7.11371067 4.97282251 13.04102041 12.09272432 14.80078125 20.74609375 C15.9790081 32.07743593 13.62343615 41.07514014 6.5078125 49.9921875 C1.69262401 54.93960084 -4.7804517 58.41349877 -11.65234375 59.08203125 C-22.50990651 59.19373457 -30.24517913 57.55532561 -38.3359375 49.90234375 C-45.05360503 42.12843918 -47.07066964 34.37921404 -46.57421875 24.22265625 C-45.50004414 14.26416251 -41.57169795 8.57702189 -34.19921875 1.74609375 C-23.87738354 -5.99006961 -11.10924729 -6.33404685 0 0 Z " fill="#F9F9F9" transform="translate(975.19921875,437.25390625)"/>
<path d="M0 0 C0.66 0 1.32 0 2 0 C1.99983765 1.02895834 1.9996753 2.05791668 1.99950802 3.11805558 C1.99274859 48.45133031 1.9933912 93.78459828 2.0319519 139.11785889 C2.0325333 139.80384884 2.03311469 140.4898388 2.03371371 141.19661633 C2.04639261 156.10391368 2.06040455 171.01120951 2.07579029 185.91850431 C2.083327 193.22870966 2.09056905 200.53891529 2.09765625 207.84912109 C2.09872168 208.94031913 2.09872168 208.94031913 2.09980864 210.05356156 C2.12270583 233.64599604 2.12613351 257.23838469 2.11949802 280.83082779 C2.11278355 305.0688635 2.12564454 329.30681151 2.16324616 353.54482093 C2.16854418 356.96583157 2.1736177 360.38684252 2.17855453 363.8078537 C2.17953315 364.48117829 2.18051176 365.15450288 2.18152003 365.84823125 C2.19671475 376.70048878 2.19118528 387.55264224 2.17796514 398.40489824 C2.16512452 409.30690426 2.17446189 420.20871197 2.20516153 431.11068282 C2.22114989 437.02104389 2.22722555 442.93099382 2.20739174 448.84135246 C2.18946614 454.2463135 2.19886825 459.65049421 2.23053883 465.0553858 C2.23711043 467.01640597 2.23342224 468.97749127 2.21874608 470.93846753 C2.20033323 473.59398409 2.21844068 476.24677263 2.24609566 478.9021492 C2.23193792 479.67295738 2.21778018 480.44376555 2.20319343 481.23793155 C2.18877045 483.64680021 2.18877045 483.64680021 3 487 C5.86986074 489.43584791 5.86986074 489.43584791 9 491 C10.56935594 494.13871188 10.35201103 496.53855822 10 500 C7.8272578 502.63016161 6.05326212 504.47336894 3 506 C2.67 514.25 2.34 522.5 2 531 C7.31539131 526.41618434 7.31539131 526.41618434 12.375 521.5625 C14 520 14 520 16 520 C14.43754113 524.05731463 11.70846915 526.06342043 8.45581055 528.84887695 C4.17352167 532.87107805 2.22152946 535.79738172 1.65942383 541.84838867 C1.61975369 544.37132007 1.63812523 546.89566652 1.70703125 549.41796875 C1.70510447 550.76989742 1.69831663 552.12182697 1.68693542 553.47370911 C1.67009783 556.9948621 1.71829391 560.51208087 1.78112793 564.03259277 C1.83363937 567.63953633 1.82316859 571.2462737 1.81835938 574.85351562 C1.81806174 581.90336524 1.88662427 588.95098524 2 596 C3.98 596 5.96 596 8 596 C8 596.66 8 597.32 8 598 C6.02 598 4.04 598 2 598 C2.10878175 607.26850239 2.2216386 616.53694447 2.33933926 625.80533791 C2.39390442 630.11157855 2.44719791 634.41782619 2.49731445 638.72412109 C2.73794452 661.81021187 2.73794452 661.81021187 3.40234375 684.88671875 C3.43001328 685.72010773 3.4576828 686.5534967 3.4861908 687.41213989 C4.22160266 703.34442533 11.85989201 716.86177521 23.27734375 727.7109375 C33.94449267 736.67930087 46.19118497 740.92375613 59.98693752 741.59167385 C60.72619705 741.63093877 61.46545659 741.67020369 62.22711792 741.71065846 C69.65687681 742.07915027 77.08355277 742.15322103 84.52149963 742.15821838 C86.00047702 742.16280116 87.47945314 742.16780358 88.95842785 742.17318195 C92.96757487 742.18657757 96.97671357 742.19412645 100.98587692 742.20060861 C105.32986843 742.2086957 109.67384305 742.22236414 114.01782227 742.23532104 C121.52586392 742.25696733 129.03390737 742.27515442 136.54196358 742.29092598 C147.39707013 742.31373352 158.25215791 742.3418606 169.10724842 742.37124526 C186.72310194 742.41878862 204.33896319 742.46208828 221.95483398 742.50268555 C239.05705363 742.54210823 256.15926644 742.58355044 273.26147461 742.62768555 C274.31739174 742.63040982 275.37330887 742.63313409 276.46122349 742.63594092 C281.75896809 742.64962151 287.05671258 742.66334156 292.35445702 742.67708123 C336.23629037 742.7908375 380.11813856 742.89769246 424 743 C424 743.66 424 744.32 424 745 C376.66925551 745.06867753 329.3385163 745.12153459 282.00773181 745.15319599 C276.41897282 745.15694808 270.83021392 745.16083105 265.24145508 745.16479492 C263.57253424 745.16597532 263.57253424 745.16597532 261.86989782 745.16717956 C243.85833781 745.18023087 225.84680654 745.20388322 207.83526357 745.23145839 C189.35159942 745.2595202 170.86795031 745.27617791 152.38426572 745.28226548 C140.98030229 745.28638031 129.57642011 745.29937334 118.17248169 745.3237494 C110.35070646 745.33961614 102.52897318 745.34439822 94.70718303 745.34050413 C90.19549591 745.33858406 85.68395073 745.34151245 81.17228889 745.35761642 C77.03717649 745.3722682 72.90230081 745.37291829 68.76717726 745.36269668 C67.27573495 745.36143428 65.78427758 745.36519501 64.2928647 745.37464955 C46.56546997 745.48044262 32.18998354 740.75259702 19.203125 728.2265625 C18.11257813 727.12441406 18.11257813 727.12441406 17 726 C16.37609375 725.40960937 15.7521875 724.81921875 15.109375 724.2109375 C11.00178234 720.01083149 8.33873176 715.25274524 5.6875 710.0625 C5.18065674 709.07817993 5.18065674 709.07817993 4.66357422 708.07397461 C0.72957177 700.01175947 -0.30178542 692.15397315 -0.22705078 683.25756836 C-0.22734283 682.32966492 -0.22763489 681.40176147 -0.22793579 680.44573975 C-0.22655399 677.41034248 -0.21104738 674.37519758 -0.1953125 671.33984375 C-0.19157828 669.22278477 -0.18873324 667.10572405 -0.18673706 664.98866272 C-0.17913284 659.44026851 -0.15951212 653.89198045 -0.1373291 648.34362793 C-0.11680127 642.67245927 -0.10772055 637.0012733 -0.09765625 631.33007812 C-0.07626304 620.22000567 -0.04216614 609.11001169 0 598 C-0.66 598 -1.32 598 -2 598 C-2 597.34 -2 596.68 -2 596 C-1.34 596 -0.68 596 0 596 C0.19526757 588.41889281 0.31220383 580.83981199 0.33421898 573.25628471 C0.34680229 569.73263238 0.38447169 566.21328772 0.48339844 562.69091797 C1.62317998 544.54024523 1.62317998 544.54024523 -6.10482788 528.98342896 C-8.93055962 526.43297068 -11.91294677 524.22489872 -15 522 C-15 521.34 -15 520.68 -15 520 C-11 522 -11 522 -2 531 C-1.67 522.42 -1.34 513.84 -1 505 C-2.65 504.67 -4.3 504.34 -6 504 C-8.63665375 501.01179242 -9.00773009 499.44061488 -8.9375 495.4375 C-7.91582488 491.69135788 -7.08611744 490.29254439 -4 488 C-2.68 487.67 -1.36 487.34 0 487 C0 326.29 0 165.58 0 0 Z " fill="#494C4A" transform="translate(1676,0)"/>
<path d="M0 0 C1.81600708 0.00374634 1.81600708 0.00374634 3.66870117 0.00756836 C5.2076001 0.01667236 6.74649902 0.02577637 8.33203125 0.03515625 C13.22015625 0.05578125 18.10828125 0.07640625 23.14453125 0.09765625 C23.14453125 16.92765625 23.14453125 33.75765625 23.14453125 51.09765625 C6.31453125 51.09765625 -10.51546875 51.09765625 -27.85546875 51.09765625 C-27.91734375 46.66328125 -27.97921875 42.22890625 -28.04296875 37.66015625 C-28.07028076 36.28029541 -28.09759277 34.90043457 -28.12573242 33.47875977 C-28.19557898 23.08964728 -27.06389024 15.587267 -19.828125 7.890625 C-13.70519904 2.32543091 -8.28103801 -0.03494109 0 0 Z " fill="#747471" transform="translate(714.85546875,397.90234375)"/>
<path d="M0 0 C16.83 0 33.66 0 51 0 C51.1546875 6.868125 51.1546875 6.868125 51.3125 13.875 C51.35802002 15.29796387 51.40354004 16.72092773 51.45043945 18.18701172 C51.53920715 26.37998399 50.49812963 32.10722655 46 39 C45.401875 39.928125 44.80375 40.85625 44.1875 41.8125 C38.09394536 47.90605464 32.76179633 49.24764073 24 51 C16.08 51 8.16 51 0 51 C0 34.17 0 17.34 0 0 Z " fill="#8E8E8C" transform="translate(749,460)"/>
<path d="M0 0 C4.74375 -0.103125 9.4875 -0.20625 14.375 -0.3125 C15.8501709 -0.35802002 17.3253418 -0.40354004 18.84521484 -0.45043945 C29.26140105 -0.55945423 36.22934319 1.36977422 43.9375 8.4375 C48.29063806 12.87620343 50.34286835 17.47908503 50.33947754 23.73852539 C50.32412964 24.42035889 50.30878174 25.10219238 50.29296875 25.8046875 C50.28994751 26.44736572 50.28692627 27.09004395 50.28381348 27.75219727 C50.26825307 30.1266309 50.22637001 32.50083355 50.1875 34.875 C50.125625 40.19625 50.06375 45.5175 50 51 C33.5 51 17 51 0 51 C0 34.17 0 17.34 0 0 Z " fill="#8D8D8A" transform="translate(749,398)"/>
<path d="M0 0 C2.78050611 2.69603504 4.85435164 5.78152745 7 9 C7.42410156 8.46890625 7.84820313 7.9378125 8.28515625 7.390625 C13.11214909 1.57701604 16.83249635 -2.56179589 24.56640625 -3.375 C36.77736763 -3.75696556 36.77736763 -3.75696556 42 1 C46.61671633 7.96938 47.70568402 14.03180085 47.48828125 22.2578125 C47.48120651 23.28687714 47.47413177 24.31594177 47.46684265 25.37619019 C47.43910641 28.62656875 47.37640692 31.87515213 47.3125 35.125 C47.28739031 37.34372492 47.26458185 39.56247715 47.24414062 41.78125 C47.1893478 47.18817976 47.1032205 52.59378674 47 58 C43.7 58 40.4 58 37 58 C36.98541748 56.79988281 36.97083496 55.59976563 36.95581055 54.36328125 C36.89754982 49.88268215 36.82031967 45.40257107 36.73754883 40.92236328 C36.70442963 38.98852498 36.67635776 37.05459304 36.65356445 35.12060547 C36.61977815 32.33000021 36.5674517 29.54024309 36.51171875 26.75 C36.50532883 25.89446533 36.4989389 25.03893066 36.49235535 24.1574707 C36.35555336 18.48855777 35.4268704 14.15365489 33 9 C28.51321324 6.00880882 24.25693871 6.29417326 19 7 C13.44535502 9.27466266 10.31338316 13.54717786 8 19 C7.43667684 22.07759015 7.39532237 25.09145834 7.390625 28.21484375 C7.37408875 29.07058487 7.35755249 29.92632599 7.34051514 30.80799866 C7.29226742 33.51790713 7.27071647 36.22725543 7.25 38.9375 C7.2218208 40.78453304 7.19189066 42.63154025 7.16015625 44.47851562 C7.08651505 48.98563091 7.036799 53.49243946 7 58 C3.37 58 -0.26 58 -4 58 C-4.0093457 56.69853027 -4.01869141 55.39706055 -4.02832031 54.05615234 C-4.06828047 49.21401105 -4.13405657 44.37250107 -4.20751953 39.53076172 C-4.23569413 37.43774544 -4.25692609 35.34462346 -4.27099609 33.25146484 C-4.29247394 30.23740663 -4.33914988 27.22461463 -4.390625 24.2109375 C-4.39185364 23.27945892 -4.39308228 22.34798035 -4.39434814 21.38827515 C-4.52280362 15.65258725 -5.21941772 12.39180885 -9 8 C-12.71204487 6.14397756 -16.9487305 6.55124399 -21 7 C-26.54737687 9.77368844 -30.76290871 14.17188258 -33 20 C-33.23687056 22.92877937 -33.37228572 25.77161186 -33.4140625 28.703125 C-33.43342865 29.54091492 -33.4527948 30.37870483 -33.4727478 31.24188232 C-33.53240724 33.91115213 -33.57887413 36.58046539 -33.625 39.25 C-33.66319236 41.06251854 -33.70224482 42.87501918 -33.7421875 44.6875 C-33.83809752 49.12485415 -33.9221788 53.56229325 -34 58 C-37.3 58 -40.6 58 -44 58 C-44 37.87 -44 17.74 -44 -3 C-41.03 -3 -38.06 -3 -35 -3 C-34.67 0.96 -34.34 4.92 -34 9 C-32.4840625 7.14375 -32.4840625 7.14375 -30.9375 5.25 C-22.6526881 -4.22554397 -10.788509 -7.55426647 0 0 Z " fill="#F9F9F9" transform="translate(1044,437)"/>
<path d="M0 0 C7.43683705 5.45724733 13.91088618 11.77308064 16 21 C16 24.63 16 28.26 16 32 C-0.5 32 -17 32 -34 32 C-31.89749664 40.41001344 -30.10409996 45.08177695 -23 50 C-16.76717258 52.07760914 -9.42577932 52.08831083 -3.4375 49.25 C-0.59897897 47.59763848 1.34384859 45.89826497 3 43 C9.75 43.75 9.75 43.75 12 46 C5.67481181 53.7099927 -0.142239 59.19137512 -10.4453125 60.40625 C-20.6722083 60.66680785 -28.3856329 58.95385333 -36.19140625 52.06640625 C-43.61752858 44.11316877 -45.50298805 35.16574339 -45.40625 24.48828125 C-44.45978602 16.36143187 -40.00627133 8.89524831 -34 3.3984375 C-30.31839547 0.82419058 -26.24658606 -0.61911712 -22 -2 C-14.78597935 -4.40467355 -6.77823957 -3.29080944 0 0 Z " fill="#F9F9F9" transform="translate(1146,436)"/>
<path d="M0 0 C3.3 0 6.6 0 10 0 C10 11.55 10 23.1 10 35 C25.18 35 40.36 35 56 35 C56 23.45 56 11.9 56 0 C59.3 0 62.6 0 66 0 C66 27.06 66 54.12 66 82 C62.7 82 59.4 82 56 82 C56 69.46 56 56.92 56 44 C40.82 44 25.64 44 10 44 C10 56.54 10 69.08 10 82 C6.7 82 3.4 82 0 82 C0 54.94 0 27.88 0 0 Z " fill="#FDFDFD" transform="translate(852,413)"/>
<path d="M0 0 C63.43445762 -0.05141597 126.86891768 -0.09911476 190.3033905 -0.12702942 C191.24216682 -0.12744359 192.18094313 -0.12785776 193.14816721 -0.12828448 C213.5500631 -0.1372631 233.95195922 -0.14557366 254.35385566 -0.15319599 C264.35886932 -0.15693801 274.36388291 -0.16082767 284.36889648 -0.16479492 C285.36451821 -0.1651872 286.36013994 -0.16557948 287.38593202 -0.16598364 C319.65975977 -0.1787688 351.93357176 -0.20130357 384.20738996 -0.22889166 C417.37156361 -0.25718936 450.53572855 -0.27565632 483.69991407 -0.28174497 C488.38359332 -0.28260944 493.06727255 -0.28358635 497.75095177 -0.28463173 C499.13368134 -0.28493513 499.13368134 -0.28493513 500.54434485 -0.28524467 C515.38604117 -0.28879049 530.22771054 -0.30270651 545.06939587 -0.3204961 C559.98851466 -0.33815736 574.90760672 -0.34490405 589.82673559 -0.34050413 C598.69160491 -0.33822157 607.55637643 -0.34431305 616.4212281 -0.36239263 C622.34433531 -0.37364776 628.26737853 -0.37398712 634.19049017 -0.36549544 C637.56457584 -0.36096935 640.93832661 -0.36280946 644.31241677 -0.37464955 C647.95166924 -0.3866788 651.59044262 -0.38020509 655.22968769 -0.36914349 C656.27088895 -0.37702453 657.31209021 -0.38490557 658.38484302 -0.39302543 C675.37505487 -0.27623826 689.18156856 7.05972906 701 19 C701.70898438 19.67546875 702.41796875 20.3509375 703.1484375 21.046875 C715.57562163 33.71212779 718.28784009 49.71189405 718.44921875 66.75390625 C718.47111373 68.41515219 718.49350068 70.07639171 718.5163269 71.73762512 C718.57601659 76.36436785 718.62051608 80.99114877 718.6609993 85.6180954 C718.68755575 88.56869395 718.71787012 91.51923395 718.74899292 94.4697876 C719.46514667 164.30717736 718.5790029 234.16400232 718 304 C717.34 304 716.68 304 716 304 C715.99668985 302.75539442 715.99337971 301.51078884 715.98996925 300.22846794 C715.9108377 270.63975286 715.82157493 241.05108615 715.71994839 211.46244066 C715.70743052 207.81529272 715.69499759 204.1681445 715.68261719 200.52099609 C715.68015119 199.79495844 715.6776852 199.06892078 715.67514448 198.32088198 C715.63549296 186.58714025 715.60271208 174.85338899 715.57250018 163.11961959 C715.54131277 151.0668112 715.5026726 139.01404306 715.45720994 126.96127999 C715.43190604 120.1968654 715.40996892 113.43247573 715.39665604 106.66802597 C715.38377246 100.29378694 715.36165062 93.91964503 715.33261681 87.54545975 C715.3235901 85.21314294 715.31786234 82.88081052 715.31578636 80.54847717 C715.29267569 58.51675453 714.55880378 37.69449846 698.71484375 20.5234375 C684.48269045 7.03559649 667.78919125 2.84253292 648.70815277 2.8613348 C647.02281669 2.85707147 647.02281669 2.85707147 645.30343342 2.85272202 C641.52955204 2.84438426 637.7557014 2.84310752 633.98181152 2.84178162 C631.25253685 2.8377657 628.52326564 2.83225726 625.79399347 2.82681805 C619.85552502 2.81577391 613.9170608 2.8083943 607.97858429 2.80341911 C599.14830286 2.79600457 590.31803618 2.78291945 581.48776346 2.76867336 C566.63346322 2.74486913 551.77916037 2.72566229 536.92485046 2.70907402 C522.21684916 2.69263412 507.50885277 2.67415183 492.80085754 2.65294075 C491.88641859 2.65162314 490.97197963 2.65030554 490.0298304 2.648948 C485.38587238 2.64224593 480.74191442 2.63550736 476.09795648 2.62875474 C443.20332991 2.58098945 410.30869876 2.53780506 377.4140625 2.49731445 C345.45702786 2.45796747 313.49999702 2.41654565 281.54296875 2.37231445 C280.55794406 2.37095192 279.57291937 2.36958939 278.55804544 2.36818558 C268.66603839 2.35450022 258.77403141 2.34077268 248.88202447 2.32701423 C228.73079822 2.29898756 208.57957159 2.27124245 188.42834473 2.2436676 C187.50182036 2.2423994 186.57529599 2.2411312 185.62069512 2.23982458 C123.74713624 2.15516617 61.87356874 2.07707151 0 2 C0 1.34 0 0.68 0 0 Z " fill="#4A4C4B" transform="translate(0,596)"/>
<path d="M0 0 C2.64 0 5.28 0 8 0 C8.16081055 0.8343457 8.32162109 1.66869141 8.48730469 2.52832031 C11.60526084 18.69632406 14.73753349 34.86038629 18 51 C28.23897736 40.02258507 28.23897736 40.02258507 32.125 26.3125 C31.1423533 20.62396725 29.46653297 15.0498417 27.83984375 9.515625 C27.04494114 6.18812569 26.838228 3.40243043 27 0 C29.64 0 32.28 0 35 0 C35.50690584 2.06081361 36.00524619 4.12373526 36.5 6.1875 C36.7784375 7.33605469 37.056875 8.48460937 37.34375 9.66796875 C37.91495385 12.56818829 38.13283779 15.06096385 38 18 C38.66 18 39.32 18 40 18 C40.18175781 17.45472656 40.36351562 16.90945313 40.55078125 16.34765625 C42.3671875 10.8984375 44.18359375 5.44921875 46 0 C48.64 0 51.28 0 54 0 C52.40688921 6.07697901 50.38906654 11.4854526 47.43286133 17.02563477 C43.52026116 24.40672698 40.69633766 29.91787388 43.10546875 38.33203125 C43.54826172 39.65267578 43.54826172 39.65267578 44 41 C44.3976161 42.91210291 44.77398505 44.82879605 45.125 46.75 C45.4146546 48.16707943 45.70550518 49.58391854 46 51 C49.8430341 47.4261802 52.66618033 43.73234448 55.3125 39.1875 C55.69567383 38.536604 56.07884766 37.88570801 56.47363281 37.21508789 C62.75397761 26.40023078 68.14006026 15.47378492 72.08984375 3.59765625 C73 1 73 1 74 0 C76.33297433 -0.04092937 78.66705225 -0.04241723 81 0 C80.46010424 5.70639824 78.88350694 10.24603374 76.5 15.4375 C76.14180176 16.22390869 75.78360352 17.01031738 75.41455078 17.82055664 C69.90954664 29.70348424 63.46736539 40.73643798 56 51.5 C55.44296387 52.34425537 54.88592773 53.18851074 54.31201172 54.05834961 C50.23272293 59.7357042 50.23272293 59.7357042 46.55859375 60.5234375 C44.30471297 60.5304919 42.21829339 60.384806 40 60 C38.33333333 53.33333333 36.66666667 46.66666667 35 40 C34.33613281 40.94101562 33.67226562 41.88203125 32.98828125 42.8515625 C32.0964835 44.1094667 31.2045491 45.36727403 30.3125 46.625 C29.65991211 47.55119141 29.65991211 47.55119141 28.99414062 48.49609375 C28.11275007 49.73656935 27.21953802 50.96872682 26.31494141 52.19238281 C25.46026462 53.3672857 24.64185587 54.56975367 23.86865234 55.79980469 C22.73046875 57.4609375 22.73046875 57.4609375 20 60 C16.93409677 60.48948408 14.07492577 60.36175597 11 60 C4.08071023 26.8795885 4.08071023 26.8795885 1.5625 13.125 C1.39911133 12.24247559 1.23572266 11.35995117 1.06738281 10.45068359 C0.92268555 9.64453613 0.77798828 8.83838867 0.62890625 8.0078125 C0.50588135 7.32348145 0.38285645 6.63915039 0.25610352 5.93408203 C0 4 0 4 0 0 Z " fill="#F8F8F8" transform="translate(1234,435)"/>
<path d="M0 0 C2.33203125 2.67578125 2.33203125 2.67578125 4 5 C2.68 6.65 1.36 8.3 0 10 C-2.21462674 8.93369824 -4.29416167 7.81421368 -6.375 6.5 C-13.81475506 2.24871139 -22.39529194 1.55574141 -30.66796875 3.6875 C-35.86103094 5.77516319 -38.86282903 8.39228013 -42 13 C-43.3506803 17.05204091 -43.68392316 20.96359958 -42.3046875 25.0703125 C-38.4880291 30.71531026 -28.78999187 32.09552127 -22.48266602 33.77636719 C-14.98609422 35.78638294 -9.07070571 37.70915573 -4 44 C-1.61846351 48.76307297 -2.34826137 56.10566465 -3.49609375 61.203125 C-6.53730062 68.83191512 -11.24192685 72.65963493 -18.46875 75.96484375 C-29.51898048 80.48384233 -41.88758614 80.5291505 -53 76 C-57.93923655 73.32832205 -61.78600753 70.65024536 -65 66 C-63.68 64.35 -62.36 62.7 -61 61 C-56.94234648 62.94880343 -53.17046284 65.3041815 -49.33984375 67.66015625 C-44.53721416 70.41024298 -40.18948679 70.25097841 -34.8125 70.3125 C-33.98685547 70.34150391 -33.16121094 70.37050781 -32.31054688 70.40039062 C-25.10559177 70.47420025 -20.04733621 68.51405237 -14.5 63.9375 C-12.23153047 59.49508051 -11.87480514 54.86419642 -13 50 C-16.39883266 46.00989842 -19.1905554 44.21202331 -24.18359375 42.71875 C-25.35857422 42.35136719 -26.53355469 41.98398437 -27.74414062 41.60546875 C-28.96294922 41.24066406 -30.18175781 40.87585938 -31.4375 40.5 C-48.62353557 35.3396307 -48.62353557 35.3396307 -52.4375 28.375 C-53.51482429 21.91105426 -53.26511394 15.52835664 -49.9375 9.75 C-38.59644241 -5.97282984 -16.69293664 -10.61324857 0 0 Z " fill="#F7F7F7" transform="translate(1227,417)"/>
<path d="M0 0 C4.33204929 3.07002667 7.96724181 7.37037857 9.890625 12.33984375 C10.77283304 20.31686173 10.89843777 27.73887504 6.31640625 34.60546875 C2.5031426 39.24406892 -1.80788384 41.92655665 -7.79296875 42.67578125 C-13.77812671 42.76067711 -17.48024168 42.52810723 -22.109375 38.33984375 C-27.61542897 32.70574201 -30.18664128 27.16892337 -30.546875 19.33984375 C-30.25429531 11.37923793 -26.54314126 6.06544945 -20.828125 0.75 C-14.49992118 -4.44200359 -6.82471478 -3.77508829 0 0 Z " fill="#2D2D2C" transform="translate(969.109375,444.66015625)"/>
<path d="M0 0 C1.65018367 0.70770072 3.26026194 1.50765038 4.859375 2.32421875 C4.046875 4.76171875 4.046875 4.76171875 2.859375 7.32421875 C-0.140625 8.32421875 -0.140625 8.32421875 -3.140625 7.32421875 C-7.57864117 6.82180182 -9.57461784 6.9650219 -13.390625 9.38671875 C-17.7745019 13.5134082 -18.98743109 18.55824922 -20.140625 24.32421875 C-15.190625 24.32421875 -10.240625 24.32421875 -5.140625 24.32421875 C-5.470625 26.63421875 -5.800625 28.94421875 -6.140625 31.32421875 C-11.420625 31.32421875 -16.700625 31.32421875 -22.140625 31.32421875 C-22.43195313 32.87625 -22.72328125 34.42828125 -23.0234375 36.02734375 C-25.70504638 50.20124501 -28.59221929 64.31729375 -31.65234375 78.4140625 C-32.66107586 83.06767119 -33.64189233 87.72584908 -34.59765625 92.390625 C-34.82646484 93.50614746 -35.05527344 94.62166992 -35.29101562 95.77099609 C-35.72378099 97.88918469 -36.15359486 100.00797902 -36.58007812 102.12744141 C-36.77150391 103.06249512 -36.96292969 103.99754883 -37.16015625 104.9609375 C-37.32620361 105.78295654 -37.49225098 106.60497559 -37.66333008 107.4519043 C-38.140625 109.32421875 -38.140625 109.32421875 -39.140625 110.32421875 C-41.81121351 110.46537036 -44.46494738 110.36668982 -47.140625 110.32421875 C-45.78937705 101.35223455 -43.92113529 92.52751924 -41.91262817 83.68548584 C-38.76340073 69.81710194 -35.76010811 55.92699587 -32.95605469 41.98461914 C-32.72950195 40.86692139 -32.50294922 39.74922363 -32.26953125 38.59765625 C-32.07431885 37.62231934 -31.87910645 36.64698242 -31.67797852 35.64208984 C-31.140625 33.32421875 -31.140625 33.32421875 -30.140625 31.32421875 C-32.780625 31.32421875 -35.420625 31.32421875 -38.140625 31.32421875 C-37.810625 29.34421875 -37.480625 27.36421875 -37.140625 25.32421875 C-34.170625 25.32421875 -31.200625 25.32421875 -28.140625 25.32421875 C-28.07875 24.02484375 -28.016875 22.72546875 -27.953125 21.38671875 C-27.02922623 13.33740894 -23.09364462 7.54710532 -16.88671875 2.515625 C-11.5649993 -1.11552585 -6.23257331 -1.96758245 0 0 Z " fill="#F5F5F5" transform="translate(1380.140625,409.67578125)"/>
<path d="M0 0 C1.134375 0.020625 2.26875 0.04125 3.4375 0.0625 C3.0273967 7.5009254 1.79467212 13.99098365 -0.5625 21.0625 C3.7275 21.0625 8.0175 21.0625 12.4375 21.0625 C12.4375 22.7125 12.4375 24.3625 12.4375 26.0625 C11.4375 27.0625 11.4375 27.0625 8.49609375 27.16015625 C7.30113281 27.14855469 6.10617187 27.13695312 4.875 27.125 C3.07869141 27.11146484 3.07869141 27.11146484 1.24609375 27.09765625 C0.31925781 27.08605469 -0.60757812 27.07445312 -1.5625 27.0625 C-1.76613159 28.13395264 -1.76613159 28.13395264 -1.97387695 29.22705078 C-2.60592678 32.54751904 -3.24010574 35.86757442 -3.875 39.1875 C-4.1021167 40.37625732 -4.3292334 41.56501465 -4.56323242 42.78979492 C-5.95494764 50.03136467 -7.41708469 57.24167482 -9.08203125 64.42578125 C-9.56012477 67.04946522 -9.72728134 69.40245844 -9.5625 72.0625 C-8.35588423 73.49683481 -8.35588423 73.49683481 -4.8125 73.1875 C-1.61661684 73.15301205 1.32441725 72.84077069 4.4375 72.0625 C4.4375 74.3725 4.4375 76.6825 4.4375 79.0625 C-1.3317081 81.57997262 -6.24231792 82.9774216 -12.5625 82.0625 C-17.10304054 79.98141892 -17.10304054 79.98141892 -18.5625 77.0625 C-19.34179989 67.10916337 -16.80531463 57.76452959 -14.625 48.125 C-14.24712386 46.413615 -13.87016317 44.7020276 -13.49414062 42.99023438 C-10.78109361 30.71828083 -10.78109361 30.71828083 -9.5625 27.0625 C-12.2025 27.0625 -14.8425 27.0625 -17.5625 27.0625 C-17.2325 25.0825 -16.9025 23.1025 -16.5625 21.0625 C-12.6025 20.5675 -12.6025 20.5675 -8.5625 20.0625 C-8.44656494 19.49217041 -8.33062988 18.92184082 -8.21118164 18.33422852 C-7.68636875 15.76366824 -7.15576385 13.19433782 -6.625 10.625 C-6.44259766 9.72716797 -6.26019531 8.82933594 -6.07226562 7.90429688 C-5.89501953 7.05029297 -5.71777344 6.19628906 -5.53515625 5.31640625 C-5.37281494 4.52564697 -5.21047363 3.7348877 -5.04321289 2.92016602 C-4.17609158 -0.43073598 -3.73401162 0.06550898 0 0 Z " fill="#F6F6F6" transform="translate(1394.5625,413.9375)"/>
<path d="M0 0 C6.15365669 3.31350745 9.32735351 6.47172235 12.25 12.75 C12.25 14.73 12.25 16.71 12.25 18.75 C-1.28 18.75 -14.81 18.75 -28.75 18.75 C-26.56235836 9.99943345 -24.65563878 5.70065118 -17.43359375 0.73046875 C-11.96987132 -2.45142065 -5.78842484 -1.92947495 0 0 Z " fill="#2C2C2B" transform="translate(1139.75,442.25)"/>
<path d="M0 0 C0.33 0 0.66 0 1 0 C1.22545852 10.93693192 1.40481267 21.87439963 1.5625 32.8125 C1.57523327 33.69441261 1.58796654 34.57632523 1.60108566 35.48496246 C2.24593197 81.28165892 1.87606072 127.07711531 1.5625 172.875 C1.55610205 173.81223168 1.5497041 174.74946336 1.54311228 175.715096 C1.37607178 200.14350545 1.1950805 224.57179862 1 249 C0.34 249 -0.32 249 -1 249 C-1.02279398 217.56770467 -1.04050005 186.13541152 -1.05106533 154.7031099 C-1.05231609 150.99543263 -1.05361041 147.28775537 -1.05493164 143.58007812 C-1.05519395 142.8419209 -1.05545626 142.10376367 -1.05572652 141.34323804 C-1.06008233 129.37827942 -1.06796939 117.41332559 -1.0771528 105.44836982 C-1.08649182 93.17868581 -1.09205614 80.90900433 -1.09408849 68.63931692 C-1.0954632 61.06329173 -1.099811 53.48728007 -1.10791647 45.91125904 C-1.11380844 40.10996121 -1.11445833 34.30867213 -1.11310768 28.5073719 C-1.113384 26.12162632 -1.11538903 23.73588025 -1.11920547 21.35013771 C-1.12414294 18.10593395 -1.12299806 14.86178921 -1.12025452 11.61758423 C-1.12316736 10.66234568 -1.1260802 9.70710714 -1.12908131 8.72292197 C-1.12709026 7.85854116 -1.12509921 6.99416036 -1.12304783 6.1035862 C-1.12361741 4.9792343 -1.12361741 4.9792343 -1.1241985 3.83216822 C-1 2 -1 2 0 0 Z " fill="#7D807D" transform="translate(717,651)"/>
<path d="M0 0 C2.64 0 5.28 0 8 0 C6.75938056 8.7932729 5.11964492 17.41121905 3.125 26.0625 C0.56811012 37.34248103 -1.79903458 48.64560779 -4 60 C-6.64 60 -9.28 60 -12 60 C-11.29557991 53.5243121 -10.09589296 47.230081 -8.75 40.859375 C-8.53182617 39.81477112 -8.31365234 38.77016724 -8.08886719 37.69390869 C-7.39557423 34.3786368 -6.69775481 31.06433534 -6 27.75 C-5.53097318 25.50787039 -5.06222041 23.26568343 -4.59375 21.0234375 C-4.14608162 18.88536467 -3.6981733 16.74734205 -3.25 14.609375 C-3.03956055 13.60517517 -2.82912109 12.60097534 -2.61230469 11.56634521 C-2.41540039 10.63147278 -2.21849609 9.69660034 -2.015625 8.73339844 C-1.84321289 7.91369568 -1.67080078 7.09399292 -1.49316406 6.24945068 C-1.0339652 4.15492418 -0.53204717 2.07708182 0 0 Z " fill="#F8F8F8" transform="translate(1326,435)"/>
<path d="M0 0 C4.19093221 3.59222761 8.10213793 6.98063236 11.9375 10.875 C12.70964844 11.65617187 13.48179687 12.43734375 14.27734375 13.2421875 C14.84582031 13.82226562 15.41429687 14.40234375 16 15 C13 15 13 15 10.80859375 13.06640625 C10.02613281 12.24011719 9.24367188 11.41382812 8.4375 10.5625 C5.53104307 7.36158822 5.53104307 7.36158822 2 5 C2 13.58 2 22.16 2 31 C3.65 31.66 5.3 32.32 7 33 C9.58617178 36.01720042 10 37.56275589 10 41.5625 C8.81392883 45.63961965 7.60817081 46.85227928 4 49 C3.01 49 2.02 49 1 49 C1 50.32 1 51.64 1 53 C0.34 53 -0.32 53 -1 53 C-1 51.68 -1 50.36 -1 49 C-1.763125 48.773125 -2.52625 48.54625 -3.3125 48.3125 C-6.68888754 46.66356655 -7.60865273 45.47836818 -9 42 C-9 38.4375 -9 38.4375 -8 35 C-5.5625 32.5625 -5.5625 32.5625 -3 31 C-2.34 31 -1.68 31 -1 31 C-1.00523682 30.25314941 -1.01047363 29.50629883 -1.01586914 28.73681641 C-1.03660401 25.36621943 -1.04964899 21.99563586 -1.0625 18.625 C-1.07087891 17.449375 -1.07925781 16.27375 -1.08789062 15.0625 C-1.09111328 13.94101563 -1.09433594 12.81953125 -1.09765625 11.6640625 C-1.10289307 10.62717285 -1.10812988 9.5902832 -1.11352539 8.52197266 C-1 6 -1 6 0 4 C-4.48717034 7.86364295 -8.87675353 11.74790208 -13 16 C-13.66 15.67 -14.32 15.34 -15 15 C-10.05 10.05 -5.1 5.1 0 0 Z " fill="#454746" transform="translate(423,92)"/>
<path d="M0 0 C2.75329021 1.79562405 4.52627461 3.05254922 6 6 C6.68571429 12.97142857 6.68571429 12.97142857 4 17 C0.64756759 19.23495494 -1.12916275 19.67920629 -5.06640625 19.43359375 C-8.10618646 18.75194607 -9.86696044 17.19767713 -12 15 C-13.43304064 12.13391871 -13.30644155 10.18699217 -13 7 C-9.39391826 0.62925559 -7.3276062 -0.62098358 0 0 Z " fill="#282828" transform="translate(1238,303)"/>
<path d="M0 0 C3.4375 2 3.4375 2 6 5 C6.80923822 8.61650707 6.38967055 11.86096302 5.1875 15.375 C4 17 4 17 1 19 C-3.50611509 19.43607565 -5.9048259 19.55923784 -9.9375 17.5 C-12.70951682 14.13997961 -13.30911988 11.31909172 -13 7 C-10.28541776 0.75646084 -6.64725898 -0.78865785 0 0 Z " fill="#272727" transform="translate(1042,303)"/>
<path d="M0 0 C11.83772289 -0.89341305 23.60768362 4.85664467 32.60107422 12.33056641 C43.970092 22.46808393 54.00254815 36.40530212 55.0859375 52.0859375 C54.96892971 54.69202008 54.24790185 56.72441427 53 59 C52.67 59 52.34 59 52 59 C51.91363281 58.12859375 51.82726562 57.2571875 51.73828125 56.359375 C49.81489459 40.0547028 43.36466334 25.70989999 30.64453125 14.9921875 C21.40274427 8.03013231 10.86212377 4.5909952 0 1 C0 0.67 0 0.34 0 0 Z " fill="#555755" transform="translate(663,597)"/>
<path d="M0 0 C0.66 0 1.32 0 2 0 C3.34277732 2.7663534 4.67255228 5.53876211 6 8.3125 C6.3815625 9.09818359 6.763125 9.88386719 7.15625 10.69335938 C7.5171875 11.45068359 7.878125 12.20800781 8.25 12.98828125 C8.58515625 13.68477783 8.9203125 14.38127441 9.265625 15.09887695 C10 17 10 17 10 20 C10.66 20 11.32 20 12 20 C12.12375 19.29875 12.2475 18.5975 12.375 17.875 C13 15 13 15 14.25 12.25 C15.321342 7.60751799 13.77962304 4.30553962 12 0 C12.66 0 13.32 0 14 0 C14.99 2.31 15.98 4.62 17 7 C18.32 4.69 19.64 2.38 21 0 C21.33 0.99 21.66 1.98 22 3 C21.690625 3.598125 21.38125 4.19625 21.0625 4.8125 C19.63000615 7.76175204 19.67457393 9.74573932 20 13 C20.9603065 15.01935916 21.95617633 17.02251874 23 19 C23.55429687 17.87980469 24.10859375 16.75960938 24.6796875 15.60546875 C25.41135191 14.13275962 26.14312861 12.66010628 26.875 11.1875 C27.23980469 10.44951172 27.60460937 9.71152344 27.98046875 8.95117188 C28.33496094 8.23896484 28.68945312 7.52675781 29.0546875 6.79296875 C29.37937012 6.1383667 29.70405273 5.48376465 30.03857422 4.80932617 C31 3 31 3 33 0 C33.66 0.33 34.32 0.66 35 1 C31.7 8.26 28.4 15.52 25 23 C24.01 23 23.02 23 22 23 C20.35 19.7 18.7 16.4 17 13 C15.35 16.3 13.7 19.6 12 23 C9 22 9 22 7.83325195 20.18994141 C7.47191162 19.41827637 7.11057129 18.64661133 6.73828125 17.8515625 C6.34189453 17.01109375 5.94550781 16.170625 5.53710938 15.3046875 C5.13298828 14.42039062 4.72886719 13.53609375 4.3125 12.625 C3.68891602 11.31015625 3.68891602 11.31015625 3.05273438 9.96875 C0 3.41213824 0 3.41213824 0 0 Z " fill="#E2E2E2" transform="translate(855,301)"/>
<path d="M0 0 C4.06146596 1.35382199 5.05421638 4.02657949 7.0625 7.5625 C8.31881136 9.76392632 9.60881478 11.87630111 11 14 C11.66 14 12.32 14 13 14 C14.57783097 11.69212783 16.05617326 9.38946405 17.5 7 C18.94382674 4.61053595 20.42216903 2.30787217 22 0 C22.66 0 23.32 0 24 0 C24 7.59 24 15.18 24 23 C23.34 23 22.68 23 22 23 C21.67 17.39 21.34 11.78 21 6 C18.44924804 10.27356532 18.44924804 10.27356532 15.91455078 14.55664062 C14.9966283 16.07155953 14.00008976 17.53802139 13 19 C12.34 19 11.68 19 11 19 C9.53057579 16.85192606 8.19193553 14.73756856 6.875 12.5 C5.59625 10.355 4.3175 8.21 3 6 C2.67 11.61 2.34 17.22 2 23 C1.34 23 0.68 23 0 23 C0 15.41 0 7.82 0 0 Z " fill="#E6E6E6" transform="translate(1073,301)"/>
<path d="M0 0 C3.62535141 1.647887 6.20557709 3.41115419 8 7 C8.66921551 10.85350468 8.89898103 14.39515239 6.9453125 17.8828125 C5.1806644 20.04424538 3.50939153 21.74530423 1 23 C-3.73177192 23.39431433 -6.09400722 23.45299639 -10.375 21.3125 C-14.01111014 18.10926011 -14.68829169 15.79232275 -15.5 11.125 C-14.78065501 6.6290938 -12.26027305 4.06600808 -9 1 C-5.93570224 -0.53214888 -3.3834358 -0.22938548 0 0 Z M-9.875 4.375 C-12.9265967 8.14461946 -13.47627542 10.14199076 -13 15 C-11.20006226 17.69990662 -9.916227 19.5418865 -7 21 C-1.12435706 21.59420843 -1.12435706 21.59420843 4 19 C6.23495494 15.64756759 6.67920629 13.87083725 6.43359375 9.93359375 C5.75194607 6.89381354 4.19767713 5.13303956 2 3 C-2.48642468 0.75678766 -6.09044159 1.24862566 -9.875 4.375 Z " fill="#E6E6E6" transform="translate(1238,301)"/>
<path d="M0 0 C3.70390021 2.02666238 5.65363011 3.48044516 8 7 C8.68343706 10.77688904 8.85107095 14.47186889 6.94921875 17.88671875 C5.17977487 20.04241292 3.5083344 21.7458328 1 23 C-3.77255923 23.39771327 -6.08482672 23.47453429 -10.375 21.25 C-14.07990343 18.07436849 -14.77726085 16.47564685 -15.5 11.6875 C-14.83398123 6.77561156 -12.58855833 4.29106127 -9 1 C-5.89046621 -0.5547669 -3.43733239 -0.28644437 0 0 Z M-12 6 C-13.35705063 10.0125139 -13.44337533 12.98023674 -11.75 16.875 C-9.99973763 19.20937224 -9.99973763 19.20937224 -7 21 C-1.33567516 21.67268251 -1.33567516 21.67268251 3.4375 19.125 C5.89983243 15.77622789 6.46767458 13.2582304 6.40625 9.04296875 C6.09722765 6.61902876 6.09722765 6.61902876 3.4375 4 C-2.46132756 0.56795487 -7.43895923 0.63406969 -12 6 Z " fill="#E4E4E4" transform="translate(1042,301)"/>
<path d="M0 0 C5.61 0 11.22 0 17 0 C17 0.66 17 1.32 17 2 C12.05 2 7.1 2 2 2 C2 4.97 2 7.94 2 11 C6.29 11 10.58 11 15 11 C15 11.33 15 11.66 15 12 C10.71 12 6.42 12 2 12 C2 14.97 2 17.94 2 21 C6.95 21 11.9 21 17 21 C17 21.66 17 22.32 17 23 C11.39 23 5.78 23 0 23 C0 15.41 0 7.82 0 0 Z " fill="#DFDFDF" transform="translate(1121,301)"/>
<path d="M0 0 C5.61 0 11.22 0 17 0 C17 0.66 17 1.32 17 2 C12.05 2 7.1 2 2 2 C2 4.97 2 7.94 2 11 C6.29 11 10.58 11 15 11 C15 11.33 15 11.66 15 12 C10.71 12 6.42 12 2 12 C2 14.97 2 17.94 2 21 C6.95 21 11.9 21 17 21 C17 21.66 17 22.32 17 23 C11.39 23 5.78 23 0 23 C0 15.41 0 7.82 0 0 Z " fill="#DADADA" transform="translate(911,301)"/>
<path d="M0 0 C4.765625 1.7265625 4.765625 1.7265625 6.875 4.1875 C8.38624541 7.96561354 8.13146455 10.11059061 7 14 C4.625 16.4375 4.625 16.4375 2 18 C1.01 18 0.02 18 -1 18 C-1.38133299 16.0085944 -1.71325582 14.00720923 -2 12 C-1.67 11.67 -1.34 11.34 -1 11 C-0.76636119 9.15108054 -0.58696365 7.29511969 -0.4375 5.4375 C-0.35371094 4.42558594 -0.26992188 3.41367188 -0.18359375 2.37109375 C-0.12300781 1.58863281 -0.06242187 0.80617188 0 0 Z " fill="#454746" transform="translate(425,123)"/>
<path d="M0 0 C6 3 6 3 8 6 C8.4375 9.375 8.4375 9.375 8 13 C5.45862841 16.15954305 3.85377341 17.71540886 0 19 C0 12.73 0 6.46 0 0 Z " fill="#454746" transform="translate(1678,487)"/>
<path d="M0 0 C3 2.5 3 2.5 5 5 C4.34 4.67 3.68 4.34 3 4 C-1.02985632 2.65671456 -3.74421055 2.59468672 -8 3 C-10.68620182 4.26938424 -10.68620182 4.26938424 -12 7 C-12.75551032 11.28909505 -12.71240656 14.73005787 -10.5625 18.5625 C-6.85451454 20.6425894 -3.16013014 20.85041334 1 20 C2.64348321 18.52348244 2.64348321 18.52348244 4 17 C4.66 17 5.32 17 6 17 C5.08486681 19.28783297 4.34515354 20.73449728 2.375 22.25 C-1.13586412 23.35869393 -4.39898287 23.69808585 -8 23 C-11.02089981 21.2524257 -13.41608883 19.16782234 -15 16 C-15.53118173 12.20584481 -15.85089348 8.53668822 -13.953125 5.109375 C-9.95457141 0.26406888 -6.21476032 -1.11699325 0 0 Z " fill="#E7E7E7" transform="translate(1001,301)"/>
<path d="M0 0 C1.134375 0.020625 2.26875 0.04125 3.4375 0.0625 C3.29654936 1.6879308 3.14957913 3.31284051 3 4.9375 C2.91878906 5.84242188 2.83757812 6.74734375 2.75390625 7.6796875 C2.4375 10.0625 2.4375 10.0625 1.4375 12.0625 C-1.2025 12.0625 -3.8425 12.0625 -6.5625 12.0625 C-6.25480293 10.24917846 -5.94120936 8.43685655 -5.625 6.625 C-5.36396484 5.11099609 -5.36396484 5.11099609 -5.09765625 3.56640625 C-4.26884241 -0.31147457 -4.18989717 0.07350697 0 0 Z " fill="#F1F1F1" transform="translate(1335.5625,409.9375)"/>
<path d="M0 0 C6.6 0 13.2 0 20 0 C20 0.66 20 1.32 20 2 C17.03 2 14.06 2 11 2 C11 8.93 11 15.86 11 23 C10.34 23 9.68 23 9 23 C9 16.07 9 9.14 9 2 C6.03 2 3.06 2 0 2 C0 1.34 0 0.68 0 0 Z " fill="#DBDBDB" transform="translate(1184,301)"/>
<path d="M0 0 C0.33 0 0.66 0 1 0 C1.0578304 4.45827926 1.09353855 8.9164628 1.125 13.375 C1.14175781 14.64601563 1.15851563 15.91703125 1.17578125 17.2265625 C1.18222656 18.43828125 1.18867187 19.65 1.1953125 20.8984375 C1.20578613 22.01911621 1.21625977 23.13979492 1.22705078 24.29443359 C1 27 1 27 -1 29 C-3.17277714 26.88094537 -5.33826908 24.75527122 -7.5 22.625 C-8.12003906 22.02171875 -8.74007813 21.4184375 -9.37890625 20.796875 C-9.96542969 20.21679688 -10.55195312 19.63671875 -11.15625 19.0390625 C-11.70087891 18.50490723 -12.24550781 17.97075195 -12.80664062 17.42041016 C-14 16 -14 16 -14 14 C-8.5548038 16.27299474 -5.0435976 20.83747306 -1 25 C-0.67 16.75 -0.34 8.5 0 0 Z " fill="#434544" transform="translate(1675,506)"/>
<path d="M0 0 C0.99 0.99 1.98 1.98 3 3 C2.67 3.33 2.34 3.66 2 4 C1.76572222 6.01594582 1.58663876 8.038474 1.4375 10.0625 C1.35371094 11.16722656 1.26992188 12.27195312 1.18359375 13.41015625 C1.09271484 14.69212891 1.09271484 14.69212891 1 16 C0.34 16 -0.32 16 -1 16 C-1.02698189 14.37509046 -1.04638757 12.75005367 -1.0625 11.125 C-1.07410156 10.22007813 -1.08570313 9.31515625 -1.09765625 8.3828125 C-1 6 -1 6 0 4 C-4.48717034 7.86364295 -8.87675353 11.74790208 -13 16 C-13.66 15.67 -14.32 15.34 -15 15 C-10.05 10.05 -5.1 5.1 0 0 Z " fill="#4B4E4D" transform="translate(423,92)"/>
<path d="M0 0 C3.39527689 1.40494216 5.30647023 2.69761694 7 6 C7.67214945 9.83563545 7.85410518 13.36635438 6.015625 16.8828125 C4.26291982 19.12238023 2.50235715 20.7564329 -0.0625 22 C-2.48645892 22 -3.88490314 21.12570644 -6 20 C-5.36191406 19.89042969 -4.72382812 19.78085937 -4.06640625 19.66796875 C-3.24011719 19.50941406 -2.41382813 19.35085938 -1.5625 19.1875 C-0.73878906 19.03667969 0.08492187 18.88585937 0.93359375 18.73046875 C1.61550781 18.48941406 2.29742188 18.24835938 3 18 C4.24158354 14.27524937 4.68364269 10.8618539 4 7 C2.55971412 4.60791681 0.99701462 2.99701462 -1 1 C-0.67 0.67 -0.34 0.34 0 0 Z " fill="#DFDFDF" transform="translate(1239,302)"/>
<path d="M0 0 C3.375 1.625 3.375 1.625 6 4 C6.875 7.25 6.875 7.25 7 10 C6.401875 9.21625 5.80375 8.4325 5.1875 7.625 C3.08914751 4.85425677 3.08914751 4.85425677 0 3 C-3.62182366 2.6707433 -6.07620658 2.50065221 -9.3125 4.25 C-11.06260495 6.06492365 -12.0397624 7.67942581 -13 10 C-13.33 8.68 -13.66 7.36 -14 6 C-9.5941359 1.50039411 -6.63724471 -1.20677176 0 0 Z " fill="#E7E7E7" transform="translate(1042,301)"/>
<path d="M0 0 C0.66 0 1.32 0 2 0 C2 6.27 2 12.54 2 19 C1.01 19 0.02 19 -1 19 C-1.09507063 12.56688704 -1.15316726 6.34241995 0 0 Z " fill="#595D5C" transform="translate(1676,487)"/>
<path d="M0 0 C3 2.5 3 2.5 5 5 C4.34 4.67 3.68 4.34 3 4 C-1.02985632 2.65671456 -3.74421055 2.59468672 -8 3 C-10.58333333 4.41666667 -10.58333333 4.41666667 -12 7 C-12.80765878 10.64721696 -12.80765878 10.64721696 -13 14 C-13.33 14 -13.66 14 -14 14 C-15.55779277 8.00848933 -15.55779277 8.00848933 -14.0234375 5.234375 C-9.95490633 0.33310353 -6.3308654 -1.13786109 0 0 Z " fill="#E1E1E1" transform="translate(1001,301)"/>
<path d="M0 0 C0.66 0 1.32 0 2 0 C3.22517308 5.66642551 3.09228867 11.23708518 3 17 C2.01 17 1.02 17 0 17 C0 11.39 0 5.78 0 0 Z " fill="#545857" transform="translate(422,117)"/>
<path d="M0 0 C-1.61010527 4.07376031 -4.53822271 6.76507069 -7.625 9.75 C-8.140625 10.25660156 -8.65625 10.76320313 -9.1875 11.28515625 C-10.45383339 12.52803902 -11.7263144 13.76465276 -13 15 C-13.33 13.68 -13.66 12.36 -14 11 C-13.46890625 10.54109375 -12.9378125 10.0821875 -12.390625 9.609375 C-7.8947499 5.70720627 -7.8947499 5.70720627 -3.625 1.5625 C-2 0 -2 0 0 0 Z " fill="#454746" transform="translate(1692,520)"/>
<path d="M0 0 C0.33 0 0.66 0 1 0 C1.47297836 4.72978358 1.83439337 8.6327178 -1.25 12.5 C-5.1 16 -5.1 16 -8 16 C-9.32 15.34 -10.64 14.68 -12 14 C-9.03 13.34 -6.06 12.68 -3 12 C-2.01 8.04 -1.02 4.08 0 0 Z " fill="#DADADA" transform="translate(1049,308)"/>
<path d="M0 0 C0.99 0.33 1.98 0.66 3 1 C2.01 3.97 1.02 6.94 0 10 C-0.66 10 -1.32 10 -2 10 C-1.125 2.25 -1.125 2.25 0 0 Z " fill="#555755" transform="translate(1410,634)"/>
<path d="M0 0 C0.99 0.33 1.98 0.66 3 1 C1.35 3.64 -0.3 6.28 -2 9 C-2.99 8.67 -3.98 8.34 -5 8 C-1.125 1.125 -1.125 1.125 0 0 Z " fill="#535452" transform="translate(1420,618)"/>
<path d="M0 0 C0.66 0.33 1.32 0.66 2 1 C2 1.66 2 2.32 2 3 C-3.29411765 7 -3.29411765 7 -7 7 C-5.55609075 3.19333016 -3.65047197 1.73397418 0 0 Z " fill="#505250" transform="translate(1435,605)"/>
<path d="M0 0 C-1.4638611 4.39158329 -3.97831338 4.87947433 -8 7 C-8 6.01 -8 5.02 -8 4 C-3.77142857 0 -3.77142857 0 0 0 Z " fill="#545654" transform="translate(402,729)"/>
<path d="M0 0 C0.99 0.33 1.98 0.66 3 1 C3 3.64 3 6.28 3 9 C2.01 9.33 1.02 9.66 0 10 C0 6.7 0 3.4 0 0 Z " fill="#656765" transform="translate(1406,709)"/>
<path d="M0 0 C0.99 0.33 1.98 0.66 3 1 C1.7260411 3.03833424 0.38938077 5.03852126 -1 7 C-1.66 7 -2.32 7 -3 7 C-3.66 6.01 -4.32 5.02 -5 4 C-4.67 3.01 -4.34 2.02 -4 1 C-3.01 1.33 -2.02 1.66 -1 2 C-0.67 1.34 -0.34 0.68 0 0 Z " fill="#DCDCDC" transform="translate(1087,313)"/>
<path d="M0 0 C0.66 0.66 1.32 1.32 2 2 C1.21654285 3.17219543 0.42297164 4.33763668 -0.375 5.5 C-0.81585938 6.1496875 -1.25671875 6.799375 -1.7109375 7.46875 C-2.13632812 7.9740625 -2.56171875 8.479375 -3 9 C-3.66 9 -4.32 9 -5 9 C-4.42647107 5.12867972 -2.51295648 2.91827204 0 0 Z " fill="#545654" transform="translate(413,714)"/>
<path d="M0 0 C0.66 0 1.32 0 2 0 C2.95024979 3.69541586 2.95024979 6.30458414 2 10 C1.34 10 0.68 10 0 10 C0 6.7 0 3.4 0 0 Z " fill="#5B5D5B" transform="translate(1406,653)"/>
<path d="M0 0 C0.66 0 1.32 0 2 0 C1.125 6.75 1.125 6.75 0 9 C-0.66 9 -1.32 9 -2 9 C-1.125 2.25 -1.125 2.25 0 0 Z " fill="#525553" transform="translate(420,697)"/>
<path d="M0 0 C0.66 0 1.32 0 2 0 C2.95024979 3.69541586 2.95024979 6.30458414 2 10 C1.34 10 0.68 10 0 10 C0 6.7 0 3.4 0 0 Z " fill="#626462" transform="translate(1406,691)"/>
<path d="M0 0 C0.33 0.99 0.66 1.98 1 3 C-1.97 3.66 -4.94 4.32 -8 5 C-8 4.34 -8 3.68 -8 3 C-5.36 2.01 -2.72 1.02 0 0 Z " fill="#565856" transform="translate(384,738)"/>
<path d="M0 0 C0.66 0 1.32 0 2 0 C2.95024979 3.69541586 2.95024979 6.30458414 2 10 C1.34 10 0.68 10 0 10 C0 6.7 0 3.4 0 0 Z " fill="#606260" transform="translate(1406,672)"/>
<path d="M0 0 C0 0.66 0 1.32 0 2 C-3.37097383 3.49821059 -5.20442119 4 -9 4 C-9 3.34 -9 2.68 -9 2 C-5.62902617 0.50178941 -3.79557881 0 0 0 Z " fill="#525453" transform="translate(1454,598)"/>
<path d="M0 0 C0.66 0.33 1.32 0.66 2 1 C0.02 5.455 0.02 5.455 -2 10 C-2.66 9.67 -3.32 9.34 -4 9 C-2.94124926 5.59687262 -1.99097846 2.98646769 0 0 Z " fill="#DBDBDB" transform="translate(888,301)"/>
<path d="M0 0 C0.99 0.99 1.98 1.98 3 3 C3.8353125 3.7425 3.8353125 3.7425 4.6875 4.5 C6 6 6 6 6 9 C5.01 9 4.02 9 3 9 C2.01 6.03 1.02 3.06 0 0 Z " fill="#ECECEC" transform="translate(874,315)"/>
<path d="M0 0 C3.16115776 1.36983503 3.9927092 1.9890638 6 5 C5.34 5.66 4.68 6.32 4 7 C2.35 5.02 0.7 3.04 -1 1 C-0.67 0.67 -0.34 0.34 0 0 Z " fill="#CECECE" transform="translate(1239,302)"/>
</svg>
